<?xml version="1.0" encoding="iso-8859-1"?>
<!-- Generator: Adobe Illustrator 19.0.0, SVG Export Plug-In . SVG Version: 6.00 Build 0)  -->
<svg version="1.1" id="Layer_1" xmlns="http://www.w3.org/2000/svg" xmlns:xlink="http://www.w3.org/1999/xlink" x="0px" y="0px"
	 viewBox="0 0 512 512" style="enable-background:new 0 0 512 512;" xml:space="preserve">
<path style="fill:#940009;" d="M368.459,20.725c-44.92,0-85.82,20.784-112.458,54.367c-26.582-33.509-67.447-54.367-112.459-54.367
	C64.393,20.725,0,85.117,0,164.266c0,91.398,58.039,172.205,124.794,234.054c60.425,55.985,120.038,89.32,122.546,90.712
	c2.693,1.494,5.678,2.242,8.661,2.242c2.983,0,5.968-0.748,8.661-2.242c2.508-1.391,62.12-34.726,122.546-90.712
	c35.809-33.178,64.423-67.461,85.046-101.898C498.627,252.383,512,207.919,512,164.266C512,85.117,447.607,20.725,368.459,20.725z"
	/>
<path style="fill:#FF0029;" d="M256.363,74.655c-0.119,0.147-0.245,0.289-0.362,0.438c-26.582-33.509-67.447-54.367-112.459-54.367
	C64.393,20.725,0,85.117,0,164.266c0,91.398,58.039,172.205,124.794,234.054c60.425,55.985,120.038,89.32,122.546,90.712
	c2.693,1.494,5.678,2.242,8.661,2.242c0.121,0,0.242-0.009,0.362-0.011L256.363,74.655L256.363,74.655z"/>
<path style="fill:#005A95;" d="M368.459,65.949c54.213,0,98.318,44.105,98.318,98.317c0,35.355-11.211,72.001-33.32,108.921
	c-18.42,30.757-44.321,61.696-76.984,91.96c-40.085,37.139-80.31,63.901-100.471,76.411c-20.16-12.51-60.387-39.273-100.471-76.411
	C98.811,312.596,45.224,241.914,45.224,164.266c0-54.212,44.105-98.317,98.318-98.317c30.085,0,58.314,13.658,77.03,37.25
	c8.579,10.815,21.627,17.118,35.431,17.118c13.804,0,26.852-6.305,35.43-17.119C310.12,79.636,338.332,65.949,368.459,65.949
	 M368.459,20.725c-44.92,0-85.82,20.784-112.458,54.367c-26.582-33.509-67.447-54.367-112.459-54.367
	C64.393,20.725,0,85.117,0,164.266c0,91.4,58.041,172.208,124.794,234.054c60.425,55.985,120.038,89.32,122.546,90.712
	c2.693,1.494,5.678,2.242,8.661,2.242c2.983,0,5.968-0.748,8.661-2.242c2.508-1.391,62.12-34.726,122.546-90.712
	c35.809-33.178,64.423-67.461,85.046-101.898C498.627,252.383,512,207.919,512,164.266C512,85.117,447.607,20.725,368.459,20.725
	L368.459,20.725z"/>
<path style="fill:#31AAEF;" d="M256.363,441.332c-0.119,0.073-0.245,0.153-0.362,0.226c-20.16-12.51-60.387-39.273-100.471-76.411
	C98.811,312.596,45.224,241.914,45.224,164.266c0-54.212,44.105-98.317,98.318-98.317c30.085,0,58.314,13.658,77.03,37.25
	c8.579,10.815,21.627,17.118,35.431,17.118c0.121,0,0.24-0.009,0.361-0.01V74.655c-0.119,0.147-0.245,0.289-0.362,0.438
	c-27.047-34.093-68.169-54.367-112.459-54.367C64.393,20.725,0,85.117,0,164.266c0,91.229,57.882,172.06,124.794,234.054
	c60.425,55.985,120.038,89.32,122.546,90.712c2.693,1.494,5.678,2.242,8.661,2.242c0.121,0,0.242-0.009,0.362-0.011L256.363,441.332
	L256.363,441.332z"/>
<g>
</g>
<g>
</g>
<g>
</g>
<g>
</g>
<g>
</g>
<g>
</g>
<g>
</g>
<g>
</g>
<g>
</g>
<g>
</g>
<g>
</g>
<g>
</g>
<g>
</g>
<g>
</g>
<g>
</g>
</svg>
